<?xml version="1.0" encoding="UTF-8" standalone="no"?>
<!-- Uploaded to: SVG Repo, www.svgrepo.com, Generator: SVG Repo Mixer Tools -->

<svg
   width="800px"
   height="800px"
   viewBox="0 0 24 24"
   version="1.1"
   id="svg6"
   sodipodi:docname="script-svgrepo-com.svg"
   inkscape:version="1.1 (c68e22c387, 2021-05-23)"
   xmlns:inkscape="http://www.inkscape.org/namespaces/inkscape"
   xmlns:sodipodi="http://sodipodi.sourceforge.net/DTD/sodipodi-0.dtd"
   xmlns="http://www.w3.org/2000/svg"
   xmlns:svg="http://www.w3.org/2000/svg">
  <defs
     id="defs10" />
  <sodipodi:namedview
     id="namedview8"
     pagecolor="#ffffff"
     bordercolor="#666666"
     borderopacity="1.0"
     inkscape:pageshadow="2"
     inkscape:pageopacity="0.0"
     inkscape:pagecheckerboard="0"
     showgrid="false"
     inkscape:zoom="0.68854523"
     inkscape:cx="292.64599"
     inkscape:cy="565.68542"
     inkscape:window-width="2560"
     inkscape:window-height="1377"
     inkscape:window-x="-8"
     inkscape:window-y="-8"
     inkscape:window-maximized="1"
     inkscape:current-layer="svg6" />
  <path
     d="M 18.621038,0.73646645 H 8.8779052 c -1.0327721,0 -1.8736795,1.26136095 -1.8736795,2.81051925 V 10.479599 H 5.880018 c -1.0327721,0 -1.8736795,1.176671 -1.8736795,2.623152 0,1.44648 0.8409074,2.623151 1.8736795,2.623151 h 9.743133 c 1.032772,0 1.873679,-1.261361 1.873679,-2.810519 V 5.982769 h 1.124208 c 1.032772,0 1.87368,-1.1766707 1.87368,-2.6231513 0,-1.4464806 -0.840908,-2.62315125 -1.87368,-2.62315125 z M 5.880018,14.97643 c -0.598828,0 -1.1242077,-0.875383 -1.1242077,-1.873679 0,-0.998297 0.5253797,-1.87368 1.1242077,-1.87368 h 8.286909 a 4.2232736,4.2232736 0 0 0 -0.417456,1.87368 4.1805537,4.1805537 0 0 0 0.421953,1.873679 z m 10.867341,-2.061047 c 0,1.179668 -0.593582,2.061047 -1.124208,2.061047 h -0.577093 a 3.1822573,3.1822573 0 0 1 -0.547115,-1.873679 3.1035627,3.1035627 0 0 1 0.644546,-2.004088 l 0.532125,-0.619064 H 7.7536975 V 3.5469857 c 0,-1.1796687 0.5935817,-2.0610475 1.1242077,-2.0610475 H 17.227021 A 4.4930834,4.4930834 0 0 0 16.747359,3.5469857 Z M 18.621038,5.2332972 H 17.49683 V 3.5469857 a 3.4595618,3.4595618 0 0 1 0.616816,-2.0610475 h 0.507392 c 0.598828,0 1.124208,0.8753831 1.124208,1.8736795 0,0.9982964 -0.52538,1.8736795 -1.124208,1.8736795 z M 9.2526411,3.7343536 H 15.248415 V 4.4838254 H 9.2526411 Z m 0,2.2484154 H 15.248415 V 6.7322408 H 9.2526411 Z m 0,2.2484154 h 5.9957739 v 0.749472 H 9.2526411 Z"
     id="path2"
     style="stroke-width:0.999998" />
  <path
     fill="none"
     d="M0 0h24v24H0z"
     id="path4" />
  <path
     d="m 9.6918622,18.438536 1.2734048,1.273404 0.0038,-0.0038 0.888063,0.887858 0.0038,0.0038 1.296839,1.296839 c 1.193727,1.193728 3.129041,1.193728 4.322729,0 1.193727,-1.193728 1.193727,-3.129042 0,-4.322749 -1.193728,-1.193728 -3.129043,-1.193728 -4.322729,0 l -0.436084,0.436083 0.864627,0.864627 0.436083,-0.436083 c 0.716075,-0.716277 1.877402,-0.716277 2.593638,0 0.716277,0.716277 0.716277,1.877402 0,2.593658 -0.716277,0.716278 -1.877401,0.716278 -2.593638,0 l -1.266883,-1.266884 -0.0039,0.0039 -2.195152,-2.195252 c -1.1937278,-1.193728 -3.1290612,-1.193728 -4.3227679,0 -1.1937284,1.193726 -1.1937284,3.12906 0,4.322749 1.193726,1.193727 3.1290611,1.193727 4.3227679,0 l 0.436084,-0.436085 -0.864424,-0.864627 -0.4360828,0.436084 c -0.7162771,0.716278 -1.8774007,0.716278 -2.5936782,0 -0.7162775,-0.716277 -0.7162775,-1.877401 0,-2.593658 0.7162775,-0.716277 1.8774011,-0.716277 2.5936782,0 z"
     fill="#000000"
     id="path2-0"
     style="stroke-width:0.03" />
</svg>
